<svg version="1.1" id="Layer_1" xmlns="http://www.w3.org/2000/svg" xmlns:xlink="http://www.w3.org/1999/xlink" x="0px" y="0px"
	 width="100%" viewBox="0 0 336 336" enable-background="new 0 0 336 336" xml:space="preserve">
<path fill="#000000" opacity="1.000000" stroke="none" 
	d="
M79.260193,33.065842 
	C103.909225,27.833618 128.148132,22.699005 152.394943,17.602123 
	C159.317139,16.147022 166.348083,15.969851 173.227142,17.428215 
	C206.583084,24.499714 239.904861,31.733061 273.224823,38.973175 
	C286.698944,41.900978 296.254089,53.518654 296.283325,67.322701 
	C296.371918,109.152733 297.112183,151.003525 296.043365,192.806458 
	C295.267120,223.166611 282.660248,249.027008 258.844604,268.402466 
	C233.856750,288.731598 206.114212,305.146088 178.966034,322.330139 
	C168.561066,328.916199 156.548828,328.961975 146.137146,322.379700 
	C119.675552,305.650696 92.883560,289.288239 68.485100,269.574951 
	C42.003906,248.178848 28.982138,219.927002 28.849674,185.904465 
	C28.698496,147.074585 28.799896,108.243744 28.792015,69.413322 
	C28.788523,52.211758 37.053509,42.169437 54.006882,38.624069 
	C62.305664,36.888592 70.572029,34.998108 79.260193,33.065842 
M172.586090,296.103912 
	C191.100113,283.940765 209.549011,271.677032 228.143250,259.637787 
	C256.946198,240.988632 271.932739,215.474762 270.871857,180.301956 
	C269.842529,146.177017 270.649933,111.996681 270.649139,77.840675 
	C270.648926,67.779175 268.628479,65.359787 258.860260,63.241066 
	C233.350464,57.708019 207.877167,52.003597 182.337357,46.613785 
	C174.114441,44.878456 165.979187,42.069851 157.265778,43.971302 
	C140.217606,47.691582 123.112450,51.150181 106.037277,54.747425 
	C92.535309,57.591904 79.042099,60.478058 65.546516,63.352802 
	C57.374264,65.093605 55.068882,67.486404 55.060978,74.168869 
	C55.016430,111.822739 54.940781,149.476624 54.956039,187.130463 
	C54.957993,191.948288 54.933834,196.852982 55.765907,201.568497 
	C59.280239,221.484726 69.591393,237.569931 85.327126,249.869736 
	C107.125465,266.908325 130.728683,281.382782 153.816589,296.576385 
	C159.878372,300.565491 165.933289,300.795044 172.586090,296.103912 
z"/>
<path fill="#000000" opacity="1.000000" stroke="none" 
	d="
M230.649139,93.397095 
	C239.200577,103.454056 239.690720,115.196548 239.290039,127.169731 
	C239.220139,129.258133 238.100510,130.179184 236.128006,130.184326 
	C229.797760,130.200821 223.467407,130.196259 217.137131,130.185867 
	C214.927872,130.182251 213.727097,129.121719 213.734131,126.837997 
	C213.736694,126.005363 213.695435,125.172699 213.683151,124.339912 
	C213.472260,110.047745 211.178726,107.339867 197.031906,104.257462 
	C189.233673,102.558334 181.441483,100.810425 173.706177,98.849365 
	C165.593231,96.792557 157.591797,96.698730 149.595764,99.285118 
	C141.664612,101.850510 133.498520,103.427406 125.337677,105.029236 
	C116.363281,106.790756 112.515244,110.627701 112.177376,118.088470 
	C111.809784,126.205368 114.864052,130.094299 124.042175,132.837234 
	C149.550568,140.460526 175.076584,148.024872 200.595200,155.613998 
	C204.741989,156.847244 208.932632,157.952805 213.024490,159.347672 
	C237.316864,167.628586 246.966553,191.754883 235.109039,214.553558 
	C231.679886,221.146835 227.040649,226.770737 220.962891,231.119644 
	C205.113922,242.460358 188.804565,253.112076 172.448547,263.701965 
	C165.974457,267.893707 159.841736,268.054901 153.327805,264.025360 
	C136.178375,253.416733 119.309982,242.347031 103.400330,229.985779 
	C89.089401,218.866684 85.131958,203.210907 86.682434,185.752457 
	C86.903046,183.268326 88.366425,182.784836 90.402405,182.782608 
	C96.233566,182.776215 102.065559,182.813675 107.895485,182.722626 
	C110.427094,182.683075 111.529045,183.654556 111.415886,186.259186 
	C110.782715,200.831909 117.936737,210.651581 130.014786,218.018570 
	C139.953918,224.080933 149.397446,230.962082 158.988724,237.584488 
	C161.692459,239.451324 163.910934,239.406784 166.650925,237.491318 
	C179.072571,228.807648 191.651688,220.349518 204.097076,211.699341 
	C207.387985,209.411987 210.202286,206.583344 212.057053,202.888901 
	C216.378418,194.281342 213.974823,187.323563 204.885086,184.174072 
	C195.619064,180.963501 186.156113,178.309082 176.738525,175.550705 
	C156.779877,169.704880 136.815475,163.876663 116.813400,158.181915 
	C102.245331,154.034302 90.492416,146.267853 87.538635,130.664566 
	C83.182724,107.654594 90.740250,86.141365 118.735176,79.489197 
	C128.438080,77.183578 138.183746,75.030106 147.968140,73.102867 
	C158.351807,71.057587 168.771240,70.884193 179.156204,73.436981 
	C189.331436,75.938217 199.562958,78.211769 209.729172,80.747963 
	C217.841278,82.771706 224.794388,86.872353 230.649139,93.397095 
z"/>
</svg>